<?xml version="1.0" encoding="UTF-8" standalone="no"?>
<!-- Created with Inkscape (http://www.inkscape.org/) -->

<svg
   width="35.71875mm"
   height="35.71875mm"
   viewBox="0 0 35.71875 35.71875"
   version="1.1"
   id="svg10296"
   xmlns="http://www.w3.org/2000/svg"
   xmlns:svg="http://www.w3.org/2000/svg">
  <defs
     id="defs10293" />
  <g
     id="layer1"
     transform="translate(-110.82934,-110.15203)">
    <g
       id="g5721"
       transform="matrix(0.26458333,0,0,0.26458333,-30.061286,3.0063647)">
		<circle
   class="st0"
   cx="600"
   cy="472.45999"
   r="67.5"
   id="circle5717"
   style="fill:#010201" />

		<path
   class="st1"
   d="m 643.12,450.8 c -1.03,-3.87 -4.08,-6.92 -7.96,-7.96 -7.02,-1.88 -35.16,-1.88 -35.16,-1.88 0,0 -28.14,0 -35.16,1.88 -3.87,1.04 -6.92,4.08 -7.96,7.96 -1.88,7.02 -1.88,21.66 -1.88,21.66 0,0 0,14.64 1.88,21.66 1.04,3.87 4.08,6.92 7.96,7.96 7.02,1.88 35.16,1.88 35.16,1.88 0,0 28.14,0 35.16,-1.88 3.87,-1.04 6.92,-4.08 7.96,-7.96 1.88,-7.02 1.88,-21.66 1.88,-21.66 0,0 0,-14.64 -1.88,-21.66 z M 591,485.96 v -27 l 23.38,13.5 z"
   id="path5719"
   style="fill:#ffffff" />

	</g>
  </g>
</svg>
