<?xml version="1.0" encoding="UTF-8" standalone="no"?>
<!-- Created with Inkscape (http://www.inkscape.org/) -->

<svg
   width="35.71875mm"
   height="35.71875mm"
   viewBox="0 0 35.71875 35.71875"
   version="1.1"
   id="svg6483"
   inkscape:version="1.2.2 (732a01da63, 2022-12-09)"
   sodipodi:docname="instagram.svg"
   xmlns:inkscape="http://www.inkscape.org/namespaces/inkscape"
   xmlns:sodipodi="http://sodipodi.sourceforge.net/DTD/sodipodi-0.dtd"
   xmlns="http://www.w3.org/2000/svg"
   xmlns:svg="http://www.w3.org/2000/svg">
  <sodipodi:namedview
     id="namedview6485"
     pagecolor="#ffffff"
     bordercolor="#000000"
     borderopacity="0.25"
     inkscape:showpageshadow="2"
     inkscape:pageopacity="0.0"
     inkscape:pagecheckerboard="0"
     inkscape:deskcolor="#d1d1d1"
     inkscape:document-units="mm"
     showgrid="false"
     inkscape:zoom="2.2097881"
     inkscape:cx="82.36084"
     inkscape:cy="104.08238"
     inkscape:window-width="1920"
     inkscape:window-height="1057"
     inkscape:window-x="-8"
     inkscape:window-y="-8"
     inkscape:window-maximized="1"
     inkscape:current-layer="layer1" />
  <defs
     id="defs6480" />
  <g
     inkscape:label="Capa 1"
     inkscape:groupmode="layer"
     id="layer1"
     transform="translate(-97.621811,-71.884069)">
    <g
       id="g5669"
       transform="matrix(0.26458333,0,0,0.26458333,-43.268812,16.863962)">
		<circle
   class="st0"
   cx="600"
   cy="275.45001"
   r="67.5"
   id="circle5657"
   style="fill:#010201" />

		<g
   id="g5667">
			<g
   id="g5665">
				<path
   class="st1"
   d="m 600,240.6 c 11.35,0 12.69,0.04 17.17,0.25 4.14,0.19 6.39,0.88 7.89,1.46 1.98,0.77 3.4,1.69 4.89,3.18 1.49,1.49 2.41,2.9 3.18,4.89 0.58,1.5 1.27,3.75 1.46,7.89 0.2,4.48 0.25,5.83 0.25,17.17 0,11.35 -0.04,12.69 -0.25,17.17 -0.19,4.14 -0.88,6.39 -1.46,7.89 -0.77,1.98 -1.69,3.4 -3.18,4.89 -1.49,1.49 -2.9,2.41 -4.89,3.18 -1.5,0.58 -3.75,1.27 -7.89,1.46 -4.48,0.2 -5.82,0.25 -17.17,0.25 -11.35,0 -12.69,-0.04 -17.17,-0.25 -4.14,-0.19 -6.39,-0.88 -7.89,-1.46 -1.98,-0.77 -3.4,-1.69 -4.89,-3.18 -1.49,-1.49 -2.41,-2.9 -3.18,-4.89 -0.58,-1.5 -1.27,-3.75 -1.46,-7.89 -0.2,-4.48 -0.25,-5.83 -0.25,-17.17 0,-11.35 0.04,-12.69 0.25,-17.17 0.19,-4.14 0.88,-6.39 1.46,-7.89 0.77,-1.98 1.69,-3.4 3.18,-4.89 1.49,-1.49 2.9,-2.41 4.89,-3.18 1.5,-0.58 3.75,-1.27 7.89,-1.46 4.48,-0.2 5.82,-0.25 17.17,-0.25 m 0,-7.65 c -11.54,0 -12.99,0.05 -17.52,0.26 -4.52,0.21 -7.61,0.92 -10.32,1.98 -2.79,1.09 -5.16,2.54 -7.53,4.9 -2.36,2.36 -3.82,4.73 -4.9,7.53 -1.05,2.7 -1.77,5.79 -1.98,10.32 -0.21,4.53 -0.26,5.98 -0.26,17.52 0,11.54 0.05,12.99 0.26,17.52 0.21,4.52 0.92,7.61 1.98,10.32 1.09,2.79 2.54,5.16 4.9,7.53 2.36,2.36 4.73,3.82 7.53,4.9 2.7,1.05 5.79,1.77 10.32,1.98 4.53,0.21 5.98,0.26 17.52,0.26 11.54,0 12.99,-0.05 17.52,-0.26 4.52,-0.21 7.61,-0.92 10.32,-1.98 2.79,-1.09 5.16,-2.54 7.53,-4.9 2.36,-2.36 3.82,-4.73 4.9,-7.53 1.05,-2.7 1.77,-5.79 1.98,-10.32 0.21,-4.53 0.26,-5.98 0.26,-17.52 0,-11.54 -0.05,-12.99 -0.26,-17.52 -0.21,-4.52 -0.92,-7.61 -1.98,-10.32 -1.09,-2.79 -2.54,-5.16 -4.9,-7.53 -2.36,-2.36 -4.73,-3.82 -7.53,-4.9 -2.7,-1.05 -5.79,-1.77 -10.32,-1.98 -4.53,-0.22 -5.98,-0.26 -17.52,-0.26 z"
   id="path5659"
   style="fill:#ffffff" />

				<path
   class="st1"
   d="m 600,253.62 c -12.05,0 -21.82,9.77 -21.82,21.82 0,12.05 9.77,21.82 21.82,21.82 12.05,0 21.82,-9.77 21.82,-21.82 0,-12.05 -9.77,-21.82 -21.82,-21.82 z m 0,35.99 c -7.82,0 -14.17,-6.34 -14.17,-14.17 0,-7.83 6.34,-14.17 14.17,-14.17 7.83,0 14.17,6.34 14.17,14.17 0,7.83 -6.35,14.17 -14.17,14.17 z"
   id="path5661"
   style="fill:#ffffff" />

				<circle
   class="st1"
   cx="622.69"
   cy="252.75999"
   r="5.0999999"
   id="circle5663"
   style="fill:#ffffff" />

			</g>

		</g>

	</g>
  </g>
</svg>
