<?xml version="1.0" encoding="UTF-8" standalone="no"?>
<!-- Created with Inkscape (http://www.inkscape.org/) -->

<svg
   width="16.086088mm"
   height="16.086088mm"
   viewBox="0 0 16.086088 16.086088"
   version="1.1"
   id="svg14078"
   xmlns="http://www.w3.org/2000/svg"
   xmlns:svg="http://www.w3.org/2000/svg">
  <defs
     id="defs14075" />
  <g
     id="layer1"
     transform="translate(-17.779363,-12.784207)">
    <circle
       style="fill:#000000;stroke-width:0.465;stroke-linecap:round;stroke-linejoin:round"
       id="path14977"
       cx="25.822407"
       cy="20.827251"
       r="8.0430441" />
    <path
       id="rect15031"
       style="fill:#ffffff;stroke-width:0.465;stroke-linecap:round;stroke-linejoin:round"
       d="m 21.731438,19.24699 h 8.261537 c 0.812564,0 1.466723,0.654158 1.466723,1.466723 0,0.812564 -0.654159,1.466722 -1.466723,1.466722 h -8.261537 c -0.812565,0 -1.466723,-0.654158 -1.466723,-1.466722 0,-0.812565 0.654158,-1.466723 1.466723,-1.466723 z" />
    <path
       id="rect15085"
       style="fill:#ffffff;stroke-width:0.35876;stroke-linecap:round;stroke-linejoin:round"
       transform="rotate(45)"
       d="m 29.768319,-8.0740318 h 6.373994 c 0.626915,0 1.131616,0.5047003 1.131616,1.1316151 0,0.6269148 -0.504701,1.1316152 -1.131616,1.1316152 h -6.373994 c -0.626915,0 -1.131616,-0.5047004 -1.131616,-1.1316152 0,-0.6269148 0.504701,-1.1316151 1.131616,-1.1316151 z" />
    <path
       id="rect15087"
       style="fill:#ffffff;stroke-width:0.35876;stroke-linecap:round;stroke-linejoin:round"
       transform="rotate(135)"
       d="m -6.8144126,-37.401932 h 6.37399483 c 0.6269148,0 1.13161517,0.504701 1.13161517,1.131615 0,0.626915 -0.50470037,1.131616 -1.13161517,1.131616 H -6.8144126 c -0.6269148,0 -1.1316152,-0.504701 -1.1316152,-1.131616 0,-0.626914 0.5047004,-1.131615 1.1316152,-1.131615 z" />
  </g>
</svg>
